<svg xmlns="http://www.w3.org/2000/svg" viewBox="0 0 256 256"><defs><style>.cls-1{fill:#404041;}</style></defs><title>ellipse01</title><g id="ellipse01"><path class="cls-1" d="M157.81,67.11a89.34,89.34,0,0,0-39.31-8.92c-43,0-77.91,29.2-77.91,65.23,0,25.9,18,48.28,44.15,58.81,13.83,9.72,31.64,15.58,51.07,15.58,43.89,0,79.6-29.9,79.6-66.66C215.41,100.79,191,75.12,157.81,67.11ZM135.81,195a87.13,87.13,0,0,1-38.5-8.78,92.24,92.24,0,0,0,21.19,2.46c43,0,77.9-29.21,77.9-65.24,0-20-10.72-37.81-27.58-49.78C194.36,84,212,105.86,212,131.15,212,166.35,177.83,195,135.81,195Z"/></g></svg>